PathFileType	4	(X/Y/Z)	 s08c0303.trc
DataRate	CameraRate	NumFrames	NumMarkers	Units	OrigDataRate	OrigDataStartFrame	OrigNumFrames
200	200	4	50	mm	200	1501	2000
Frame#	Time	racr			lacr			c7			jug			rlel			rdr			llel			ldr			s2			lic			ric			lasi			rasi			rpsi			lpsi			rgt			lgt			rth1			rth2			rth3			rth4			rlfc			rmfc			rsh1			rsh2			rsh3			rsh4			rlmal			rmmal			rcal			rtoe			rmt5			lth1			lth2			lth4			lth3			llfc			lmfc			llmal			lmmal			lcal			lmt5			lsh1			lsh2			lsh3			lsh4			ltoe			SBIKE			LBIKE			RBIKE			
		X1	Y1	Z1	X2	Y2	Z2	X3	Y3	Z3	X4	Y4	Z4	X5	Y5	Z5	X6	Y6	Z6	X7	Y7	Z7	X8	Y8	Z8	X9	Y9	Z9	X10	Y10	Z10	X11	Y11	Z11	X12	Y12	Z12	X13	Y13	Z13	X14	Y14	Z14	X15	Y15	Z15	X16	Y16	Z16	X17	Y17	Z17	X18	Y18	Z18	X19	Y19	Z19	X20	Y20	Z20	X21	Y21	Z21	X22	Y22	Z22	X23	Y23	Z23	X24	Y24	Z24	X25	Y25	Z25	X26	Y26	Z26	X27	Y27	Z27	X28	Y28	Z28	X29	Y29	Z29	X30	Y30	Z30	X31	Y31	Z31	X32	Y32	Z32	X33	Y33	Z33	X34	Y34	Z34	X35	Y35	Z35	X36	Y36	Z36	X37	Y37	Z37	X38	Y38	Z38	X39	Y39	Z39	X40	Y40	Z40	X41	Y41	Z41	X42	Y42	Z42	X43	Y43	Z43	X44	Y44	Z44	X45	Y45	Z45	X46	Y46	Z46	X47	Y47	Z47	X48	Y48	Z48	X49	Y49	Z49	X50	Y50	Z50	
1501	7.5050	851.052023	1304.585939	-5.062567	858.094949	1343.660750	-326.728982	842.159345	1379.999956	-159.694694	770.479192	1236.378402	-170.985339	645.198998	1106.234008	84.356651	774.448594	899.275274	-38.554216	716.789341	1140.788528	-482.919719	782.636851	889.634606	-422.822488	265.438059	1275.450029	-278.035122	459.241777	1230.624280	-373.473348	375.840249	1254.450169	-73.119548	452.737019	1173.582418	-333.800355	394.853054	1195.788193	-108.977923	290.768528	1311.564097	-217.828327	318.713892	1307.965661	-310.363188	274.852584	1161.199079	-67.899452	382.702848	1121.591417	-425.803089	371.894924	1012.266768	-42.035928	437.957441	953.755405	-32.185600	466.930495	872.140431	-37.593946	468.915820	974.300866	-32.914232	529.689211	769.760351	-42.839556	528.530455	759.795118	-155.227412	445.170883	665.526569	-22.843904	432.207646	577.710754	-41.544780	378.418504	511.596067	-52.777670	463.601421	569.060548	-65.206173	324.508128	403.524761	-68.262569	NaN	NaN	NaN	243.445948	385.086592	-117.085186	537.391241	337.634129	-96.165089	440.754639	316.043998	-35.713208	424.826137	994.253870	-416.194000	467.473254	919.628048	-401.545501	497.452404	929.305178	-383.312019	469.063164	830.720736	-401.309548	459.230428	699.499560	-386.921276	432.114279	681.550716	-280.673004	112.388772	455.347780	-407.987849	143.233717	446.449945	-321.550130	61.583146	493.921530	-365.585560	117.171395	284.785904	-417.147094	357.021417	619.390632	-416.097811	301.190792	557.917173	-404.026387	218.913453	523.613513	-408.596611	312.733927	540.423685	-365.537304	183.875401	231.649286	-345.940825	-201.636221	921.319464	-222.552217	-10.000746	83.514317	-426.488499	-12.277308	80.127227	-28.167097	
1502	7.5100	852.737604	1301.887129	-6.274628	857.120288	1344.505471	-328.261332	842.858432	1379.478817	-160.391777	770.101441	1236.452205	-172.351272	646.704669	1105.241605	85.723093	774.297802	898.502029	-37.890670	716.076881	1140.557296	-483.287346	780.620806	890.219206	-424.746597	265.530723	1274.098778	-277.611608	459.757470	1230.700693	-372.184859	375.651544	1250.367950	-72.682254	453.426524	1173.325274	-332.672024	395.089161	1193.630093	-107.096881	290.563588	1309.537157	-216.689761	318.870433	1307.288394	-307.964545	273.036877	1157.469253	-68.315365	385.471688	1121.753925	-425.229129	368.659429	1007.272006	-42.407071	433.362807	947.441996	-32.388433	460.964996	865.117170	-38.857500	464.801182	967.278446	-33.126918	521.981036	762.126235	-43.506573	520.844793	751.544666	-155.998113	439.453672	655.747375	-22.905019	428.336569	567.887880	-41.122095	375.417038	500.750682	-52.380791	459.074608	559.724522	-65.776331	323.388101	391.702588	-67.428934	NaN	NaN	NaN	242.518428	372.836314	-116.266191	536.977218	327.319378	-96.147563	440.283180	304.702908	-35.675459	428.610999	994.841632	-415.381476	471.980690	920.956137	-399.825482	501.170917	930.938454	-380.557538	475.031769	831.934598	-400.032498	466.024835	701.301704	-385.160486	438.003459	683.246855	-279.247975	114.063581	465.746451	-407.818270	144.715122	456.298339	-321.209668	63.467804	504.889306	-365.575855	117.457158	295.329503	-416.994204	362.812220	623.350833	-415.030947	305.570164	562.383281	-402.022678	222.106428	531.192173	-407.849916	316.349073	545.517115	-364.532711	183.786216	241.669920	-345.727412	-201.561104	921.189470	-222.278729	-9.992655	83.513215	-426.460607	-12.278529	80.071867	-28.137520	
1503	7.5150	854.421481	1299.643969	-7.922200	856.083464	1345.152318	-329.965463	843.453725	1379.316292	-161.138255	769.679403	1236.827493	-173.306328	648.694830	1104.563247	87.349981	774.294529	897.864171	-37.057630	715.252825	1140.477271	-483.726594	778.732720	890.284902	-425.190117	265.571149	1272.907433	-276.860734	459.995380	1230.748089	-371.037216	375.868701	1246.801034	-71.591552	454.011452	1173.077009	-331.367359	395.489255	1191.259179	-105.165546	290.546171	1307.454167	-215.351345	318.795492	1306.330056	-306.533251	271.654245	1153.708204	-68.011057	387.861627	1122.007244	-424.569544	365.558257	1002.147370	-42.714430	428.934092	941.036119	-32.783784	455.330988	858.063709	-40.031847	460.839789	960.092086	-33.371399	514.256769	754.236896	-44.410102	513.327907	742.308860	-155.812201	434.116120	646.221603	-23.588791	424.376379	558.092506	-41.451444	372.364238	490.019658	-52.038691	454.941344	550.517843	-66.624350	321.817417	380.180718	-66.546312	NaN	NaN	NaN	241.059906	361.046515	-115.398967	535.755144	316.112331	-96.294218	439.332960	293.412275	-35.626731	431.994240	995.475181	-414.770438	476.278162	922.238699	-398.335324	504.683111	932.644138	-378.083968	480.797335	833.293730	-399.131655	473.004960	703.449675	-383.196701	444.165663	685.026154	-277.754846	116.321829	476.192095	-407.430672	146.462604	466.010970	-321.277280	65.793074	515.771652	-365.419659	118.564730	305.924327	-416.827530	368.679253	627.722249	-413.689011	309.130683	568.146247	-400.573765	225.739998	538.896790	-407.015399	320.132221	550.816394	-363.352311	184.443767	251.802488	-345.576253	-201.509577	921.064432	-222.271412	-9.971498	83.529726	-426.430004	-12.262807	80.075200	-28.104924	
1504	7.5200	856.181222	1297.965585	-9.426031	855.003427	1345.981785	-331.962658	843.940020	1379.416755	-162.016178	769.548937	1237.256058	-174.289139	651.102376	1104.350798	89.087117	774.475393	897.229997	-36.129282	714.230677	1140.374660	-484.261315	778.083406	890.261710	-425.499376	266.100703	1271.548489	-275.072449	460.091285	1230.848658	-369.462377	376.491991	1243.328478	-70.218874	454.436384	1172.823426	-329.910511	396.059846	1188.672464	-103.202542	290.113694	1305.609978	-213.530191	318.610453	1305.416923	-304.918147	271.683871	1150.321346	-68.296185	389.829153	1122.274517	-423.767100	362.570109	996.930164	-42.995713	424.496788	934.414181	-33.276193	449.282551	850.865157	-41.224108	456.892248	952.758907	-33.680363	506.434477	746.105554	-45.415798	507.277165	734.323114	-155.906444	428.870333	636.851585	-24.557938	420.462815	548.380036	-41.808248	369.372655	479.590059	-51.983495	451.067707	541.619798	-66.988400	319.885125	369.026996	-65.899156	NaN	NaN	NaN	239.152282	349.811508	-114.519735	534.337696	305.587973	-95.668717	437.754067	282.305190	-35.619450	435.099455	996.084965	-414.318885	480.383473	923.549064	-397.093546	508.042232	934.412570	-376.142172	486.562873	834.774342	-398.350974	480.207135	705.832323	-381.530356	450.484220	686.893801	-276.129566	119.008585	486.615422	-406.999785	148.993545	475.903631	-320.797108	68.447897	526.478303	-365.126715	120.289703	316.576854	-416.701903	374.660989	632.237441	-411.824412	314.091112	574.991406	-400.399738	229.768123	546.738164	-405.994003	324.233810	556.285457	-361.899775	185.891221	262.109297	-345.447173	-201.173104	921.154091	-221.521130	-9.992269	83.555572	-426.368221	-12.240157	80.059123	-28.042815	
